<svg width="98" height="64" xmlns="http://www.w3.org/2000/svg"><path d="M9.798 43.735h1.32c.355.007.64.297.64.653 0 .36-.282.652-.64.652h-1.32v1.319a.653.653 0 01-.654.64.643.643 0 01-.653-.64V45.04h-1.32a.653.653 0 01-.64-.652c0-.36.282-.653.64-.653h1.32v-1.319a.653.653 0 01.653-.64c.361 0 .654.281.654.64v1.319zm86.219-5.222v-1.319a.642.642 0 00-.653-.64.653.653 0 00-.653.64v1.319h-1.32a.643.643 0 00-.64.653c0 .35.287.652.64.652h1.32v1.319c0 .359.292.64.653.64a.653.653 0 00.653-.64v-1.319h1.32c.359 0 .64-.292.64-.652a.653.653 0 00-.64-.653h-1.32zM48.56 60.053H15.672a1.302 1.302 0 01-1.302-1.305c0-.72.592-1.305 1.302-1.305h5.925a5.186 5.186 0 01-.695-2.605V16.965a5.216 5.216 0 015.23-5.215h3.914v-1.312a5.216 5.216 0 015.23-5.216H66.62a5.22 5.22 0 015.23 5.216V48.31c0 .949-.253 1.838-.696 2.604h7.227c.722 0 1.307.58 1.307 1.306 0 .72-.58 1.305-1.306 1.305H62.705v1.312c0 .95-.254 1.838-.696 2.605h.7c.718 0 1.302.58 1.302 1.305a1.31 1.31 0 01-1.302 1.306h-6.873c.597 1 .468 2.31-.4 3.179a2.607 2.607 0 01-3.695 0l-3.181-3.18zm4.776-2.61h4.154a2.604 2.604 0 002.602-2.618V16.904a2.529 2.529 0 00-2.521-2.543H26.036a2.532 2.532 0 00-2.522 2.543v37.921a2.617 2.617 0 002.601 2.618h19.83l-.67-.673a2.605 2.605 0 01-.68-2.523l-1.233-1.234a9.151 9.151 0 01-12.377-1.348 9.137 9.137 0 01.433-12.434 9.149 9.149 0 0112.464-.458 9.135 9.135 0 011.327 12.394l1.234 1.234a2.605 2.605 0 012.526.677l4.367 4.365zm9.369-6.528h3.93a2.613 2.613 0 002.602-2.61v-37.86a2.604 2.604 0 00-2.601-2.612H35.258a2.613 2.613 0 00-2.6 2.611v1.306h24.816a5.22 5.22 0 015.23 5.215v33.95zM16.656 2.937h1.946c.55 0 .993.435.993.98 0 .54-.444.979-.993.979h-1.946V6.84a.983.983 0 01-.98.992.987.987 0 01-.98-.992V4.896H12.75a.984.984 0 01-.993-.98c0-.54.444-.979.993-.979h1.946V.992c0-.548.435-.992.98-.992.541 0 .98.444.98.992v1.945zM1.306 58.748c0-.72.592-1.305 1.303-1.305h7.846c.718 0 1.302.58 1.302 1.305a1.31 1.31 0 01-1.302 1.306H2.609a1.302 1.302 0 01-1.303-1.306zm41.197-8.439a6.526 6.526 0 00-2.928-10.922 6.535 6.535 0 00-6.31 1.69 6.526 6.526 0 000 9.232 6.536 6.536 0 009.238 0zM28.74 19.583c0-.72.584-1.305 1.305-1.306h14.371a1.306 1.306 0 110 2.611h-14.37a1.303 1.303 0 01-1.306-1.305zm0 6.527c0-.72.581-1.305 1.297-1.305h20.92c.716 0 1.297.58 1.297 1.305 0 .721-.581 1.306-1.297 1.306h-20.92a1.299 1.299 0 01-1.297-1.306zm0 6.528c0-.72.582-1.306 1.303-1.306h9.15c.72 0 1.304.58 1.304 1.306 0 .72-.583 1.305-1.304 1.305h-9.15a1.302 1.302 0 01-1.303-1.305zM3.92 24.805a3.914 3.914 0 110-7.833 3.918 3.918 0 013.918 3.916 3.918 3.918 0 01-3.919 3.917zm0-1.958a1.96 1.96 0 001.696-2.938 1.96 1.96 0 00-3.656.98 1.96 1.96 0 001.96 1.958zm80.993-5.875a3.918 3.918 0 01-3.92-3.917 3.918 3.918 0 013.92-3.916 3.918 3.918 0 013.919 3.916 3.918 3.918 0 01-3.92 3.917zm0-1.959a1.96 1.96 0 001.697-2.937 1.96 1.96 0 00-3.656.98c0 1.08.877 1.957 1.959 1.957z" fill="#C1C1C1"/></svg>